<svg style="width:150px" preserveAspectRatio="xMidYMid meet" data-bbox="0 0 690.382 254.704" xmlns="http://www.w3.org/2000/svg" viewBox="0 0 690.382 254.704" data-type="color" role="presentation" aria-hidden="true" aria-labelledby="svgcid-r3ihbgusm7a"><defs><style>#comp-kzbhhtcb svg [data-color="1"] {fill: #BB1919;}</style></defs><title id="svgcid-r3ihbgusm7a"></title>
  <g>
    <path fill="#C33A3A" d="M185.829 0h67.931v254.704H0V83.262c54.263 28.343 99.972 53.569 151.969 92.602 42.888 32.196 19.093 69.771 19.953 69.424 65.03-26.278 75.106-112.303 3.583-141.434C98.481 72.48 76.413 61.862 78.645 9.212c31.468 37.072 105.847 73.576 141.653 82.205-.743-7.993-3.769-20.656-11.66-42.686C201.477 28.74 193.918 12.962 185.829 0ZM40.933 236.071c-6.404 0-11.049-1.481-14.005-4.444-2.955-2.892-4.433-7.476-4.433-13.613v-25.391h9.29v25.18c0 3.456.703 5.925 2.18 7.476 1.479 1.623 3.801 2.398 7.038 2.398 1.97-.07 3.66-.423 5.067-.916 1.337-.494 2.463-1.341 3.378-2.54.845-1.199 1.478-2.75 1.9-4.725.352-1.905.563-4.373.563-7.336 0-4.02-.422-6.983-1.266-8.957-.915-1.905-2.393-2.892-4.504-2.892-2.041 0-4.082.634-6.264 1.975v-8.464c2.182-1.27 4.786-1.905 7.812-1.905 4.856 0 8.374 1.623 10.556 4.797 2.182 3.174 3.237 8.322 3.237 15.376 0 8.323-1.618 14.388-4.926 18.197-3.308 3.88-8.515 5.784-15.623 5.784Zm46.473-8.166c2.956-.071 5.56-.212 7.882-.564 2.323-.282 4.293-.706 5.912-1.199l-12.175-33.433H99.09l10.134 29.271c2.603-2.045 4.433-5.29 5.489-9.874 1.126-4.585 1.689-11.004 1.689-19.397h9.571c0 11.003-1.197 19.608-3.66 25.745-2.463 6.206-6.474 10.721-11.893 13.612-5.489 2.892-13.16 4.585-23.013 5.008v-9.169Zm-17.613-35.196h9.29v22.712h-9.29v-22.712Z" clip-rule="evenodd" fill-rule="evenodd" data-color="1"></path>
    <path fill="#000000" d="m366.966 93.636-3.016 12.385h32.902l-3.016-12.385c-2.193-8.623-4.387-17.98-6.58-28.07a1164.776 1164.776 0 0 0-6.58-28.621h-1.097c-1.828 8.99-3.839 18.53-6.032 28.62-2.194 10.091-4.387 19.448-6.581 28.071ZM298.42 180.6 352.709 1.719h57.03L464.027 180.6h-49.901l-8.774-37.978h-49.901l-8.774 37.978H298.42Z" data-color="2"></path>
    <path fill="#000000" d="M481.023 180.6V1.719h47.159V180.6h-47.159Z" data-color="2"></path>
    <path fill="#000000" d="M596.063 180.6V41.348h-47.16V1.718h141.479v39.63h-47.16V180.6h-47.159Z" data-color="2"></path>
    <path fill="#000000" d="M298.082 253.847v-46.825h5.785v19.629h21.26v-19.629h5.855v46.825h-5.855V231.79h-21.26v22.057h-5.785Z" data-color="2"></path>
    <path fill="#000000" d="M345.783 253.847v-34.691h5.716v34.691h-5.716Zm2.928-41.829c-1.115 0-2.068-.357-2.858-1.07-.743-.714-1.115-1.618-1.115-2.713 0-1.142.372-2.046 1.115-2.712.79-.714 1.743-1.071 2.858-1.071s2.045.357 2.788 1.071c.79.666 1.185 1.57 1.185 2.712 0 1.095-.395 1.999-1.185 2.713-.743.713-1.673 1.07-2.788 1.07Z" data-color="2"></path>
    <path fill="#000000" d="M362.868 238.215v-4.497H378.9v4.497h-16.032Z" data-color="2"></path>
    <path fill="#000000" d="M398.987 254.703c-1.812 0-3.346-.285-4.6-.856-1.209-.571-2.208-1.356-2.998-2.356-.743-.999-1.278-2.212-1.603-3.64-.325-1.428-.488-2.998-.488-4.711v-19.201h-5.019v-4.426l5.298-.357.697-9.707h4.81v9.707h9.131v4.783h-9.131v19.272c0 2.142.371 3.807 1.115 4.997.79 1.142 2.161 1.713 4.112 1.713.605 0 1.255-.095 1.952-.286.697-.19 1.325-.404 1.882-.642l1.115 4.426c-.929.333-1.951.618-3.067.856a12.348 12.348 0 0 1-3.206.428Z" data-color="2"></path>
    <path fill="#000000" d="M427.442 254.703c-2.277 0-4.415-.404-6.413-1.213a16.298 16.298 0 0 1-5.158-3.569c-1.441-1.57-2.579-3.474-3.416-5.71-.836-2.237-1.254-4.783-1.254-7.638 0-2.855.418-5.401 1.254-7.638.883-2.284 2.022-4.211 3.416-5.781 1.44-1.571 3.067-2.76 4.879-3.569a13.057 13.057 0 0 1 5.646-1.285c2.138 0 4.043.38 5.716 1.142 1.719.761 3.137 1.856 4.252 3.283 1.162 1.428 2.045 3.141 2.649 5.14.604 1.998.906 4.235.906 6.709 0 .619-.023 1.238-.07 1.856 0 .571-.046 1.071-.139 1.499h-22.863c.232 3.712 1.347 6.662 3.345 8.851 2.045 2.142 4.694 3.212 7.947 3.212 1.626 0 3.113-.238 4.461-.713a20.855 20.855 0 0 0 3.973-1.999l2.021 3.854c-1.487.952-3.136 1.785-4.949 2.499-1.812.714-3.88 1.07-6.203 1.07Zm-10.665-20.985H434.9c0-3.522-.743-6.187-2.23-7.995-1.441-1.856-3.486-2.784-6.134-2.784-1.209 0-2.37.238-3.486.714-1.068.476-2.044 1.19-2.927 2.142-.883.904-1.627 2.022-2.231 3.354-.557 1.333-.929 2.856-1.115 4.569Z" data-color="2"></path>
    <path fill="#000000" d="M464.461 254.703c-2.23 0-4.321-.404-6.273-1.213a14.631 14.631 0 0 1-5.088-3.498c-1.395-1.57-2.51-3.473-3.346-5.71-.79-2.284-1.185-4.854-1.185-7.709 0-2.903.441-5.473 1.324-7.709.883-2.284 2.068-4.211 3.555-5.782a14.895 14.895 0 0 1 5.158-3.569 16.563 16.563 0 0 1 6.274-1.213c2.23 0 4.135.404 5.715 1.213s2.974 1.761 4.183 2.855l-2.928 3.855a13.988 13.988 0 0 0-3.137-2.213c-1.068-.571-2.277-.856-3.624-.856-1.534 0-2.951.333-4.252.999-1.301.618-2.417 1.523-3.346 2.712-.929 1.19-1.673 2.618-2.231 4.283-.511 1.618-.766 3.426-.766 5.425 0 1.999.255 3.807.766 5.425.512 1.618 1.209 3.022 2.092 4.211a10.363 10.363 0 0 0 3.345 2.713c1.301.618 2.719.928 4.252.928 1.58 0 3.021-.334 4.322-1a18.296 18.296 0 0 0 3.625-2.498l2.509 3.926a18.754 18.754 0 0 1-5.088 3.283 15.29 15.29 0 0 1-5.856 1.142Z" data-color="2"></path>
    <path fill="#000000" d="M485.655 253.847v-50.823h5.716v13.848l-.209 7.138c1.626-1.57 3.323-2.903 5.088-3.997 1.766-1.142 3.834-1.713 6.204-1.713 3.578 0 6.181 1.142 7.807 3.426 1.673 2.284 2.509 5.663 2.509 10.136v21.985h-5.715v-21.2c0-3.283-.511-5.639-1.534-7.067-1.022-1.475-2.649-2.212-4.879-2.212-1.766 0-3.323.452-4.67 1.356-1.348.904-2.881 2.236-4.601 3.997v25.126h-5.716Z" data-color="2"></path>
    <path fill="#000000" d="M553.767 254.703c-1.813 0-3.346-.285-4.601-.856-1.208-.571-2.207-1.356-2.997-2.356-.744-.999-1.278-2.212-1.603-3.64-.326-1.428-.488-2.998-.488-4.711v-19.201h-5.019v-4.426l5.297-.357.697-9.707h4.81v9.707h9.131v4.783h-9.131v19.272c0 2.142.372 3.807 1.115 4.997.79 1.142 2.161 1.713 4.113 1.713a7.41 7.41 0 0 0 1.952-.286c.697-.19 1.324-.404 1.882-.642l1.115 4.426a23.88 23.88 0 0 1-3.067.856 12.36 12.36 0 0 1-3.206.428Z" data-color="2"></path>
    <path fill="#000000" d="M582.221 254.703c-2.277 0-4.414-.404-6.413-1.213a16.309 16.309 0 0 1-5.158-3.569c-1.44-1.57-2.579-3.474-3.415-5.71-.837-2.237-1.255-4.783-1.255-7.638 0-2.855.418-5.401 1.255-7.638.883-2.284 2.021-4.211 3.415-5.781 1.441-1.571 3.067-2.76 4.88-3.569a13.057 13.057 0 0 1 5.646-1.285c2.137 0 4.043.38 5.715 1.142 1.72.761 3.137 1.856 4.252 3.283 1.162 1.428 2.045 3.141 2.649 5.14.604 1.998.906 4.235.906 6.709 0 .619-.023 1.238-.069 1.856 0 .571-.047 1.071-.14 1.499h-22.863c.232 3.712 1.348 6.662 3.346 8.851 2.045 2.142 4.693 3.212 7.946 3.212 1.627 0 3.114-.238 4.461-.713a20.863 20.863 0 0 0 3.974-1.999l2.021 3.854c-1.487.952-3.137 1.785-4.949 2.499-1.812.714-3.88 1.07-6.204 1.07Zm-10.665-20.985h18.124c0-3.522-.744-6.187-2.231-7.995-1.44-1.856-3.485-2.784-6.134-2.784-1.208 0-2.37.238-3.485.714-1.069.476-2.045 1.19-2.928 2.142-.883.904-1.626 2.022-2.23 3.354-.558 1.333-.93 2.856-1.116 4.569Z" data-color="2"></path>
    <path fill="#000000" d="M612.712 254.703c-2.835 0-5.205-.856-7.11-2.569-1.859-1.713-2.789-4.14-2.789-7.281 0-3.807 1.65-6.71 4.949-8.708 3.3-2.047 8.574-3.474 15.823-4.283 0-1.095-.116-2.165-.348-3.212-.186-1.047-.534-1.975-1.046-2.784-.511-.809-1.231-1.451-2.161-1.927-.882-.524-2.021-.785-3.415-.785-1.952 0-3.787.38-5.507 1.142-1.719.761-3.253 1.618-4.6 2.569l-2.231-4.068c1.58-1.047 3.509-2.047 5.786-2.998 2.277-1 4.786-1.499 7.528-1.499 4.136 0 7.133 1.308 8.992 3.926 1.859 2.569 2.788 6.019 2.788 10.35v21.271h-4.74l-.488-4.14h-.209a30.028 30.028 0 0 1-5.228 3.569c-1.859.952-3.857 1.427-5.994 1.427Zm1.672-4.711c1.627 0 3.16-.38 4.601-1.142 1.44-.809 2.974-1.975 4.6-3.497v-9.637c-2.834.381-5.227.833-7.179 1.357-1.905.523-3.462 1.142-4.67 1.855-1.162.714-2.022 1.547-2.579 2.499-.512.904-.767 1.903-.767 2.998 0 1.998.581 3.426 1.742 4.283 1.162.856 2.58 1.284 4.252 1.284Z" data-color="2"></path>
    <path fill="#000000" d="M642.817 253.847v-34.691h4.74l.488 4.997h.209c1.487-1.666 3.091-3.046 4.81-4.14 1.766-1.142 3.671-1.713 5.716-1.713 2.602 0 4.623.595 6.064 1.784 1.487 1.142 2.579 2.76 3.276 4.854 1.766-1.999 3.532-3.593 5.298-4.782 1.812-1.238 3.764-1.856 5.855-1.856 3.485 0 6.064 1.142 7.737 3.426 1.719 2.284 2.579 5.663 2.579 10.136v21.985h-5.716v-21.2c0-3.283-.511-5.639-1.533-7.067-1.023-1.475-2.602-2.212-4.74-2.212-2.556 0-5.391 1.784-8.504 5.353v25.126h-5.716v-21.2c0-3.283-.511-5.639-1.533-7.067-1.023-1.475-2.626-2.212-4.81-2.212-2.556 0-5.39 1.784-8.504 5.353v25.126h-5.716Z" data-color="2"></path>
  </g>
</svg>
